<svg width="600" height="300" viewBox="0 0 600 300" fill="none" xmlns="http://www.w3.org/2000/svg">
  <g transform="translate(120 113.5) scale(2.4324324324)">
<path d="M19.7475 8.97139C19.7475 14.2377 16.4947 18.1472 10.0368 18.1472H5.26629V28.8015H0V0H10.0368C16.499 0 19.7475 3.87035 19.7475 8.97139ZM14.1116 9.01053C14.1116 6.21431 12.3025 4.85316 9.46279 4.85316H5.26629V13.2897H9.46279C12.3025 13.2897 14.1116 11.8502 14.1116 9.01053Z" fill="#FFFFFF"/>
<path d="M27.5665 28.8015H22.5089V0H27.5665V28.8015Z" fill="#FFFFFF"/>
<path d="M30.9846 19.2951C30.9846 12.7937 35.1419 9.17126 40.1168 9.17126C43.2044 9.17126 45.2614 10.4889 46.4529 12.4632H46.5355V9.78878H51.554V28.797H46.5355V26.1225H46.4529C45.2614 28.0968 43.2001 29.4145 40.1168 29.4145C35.1419 29.4189 30.9846 25.7964 30.9846 19.2951ZM46.5355 19.2951C46.5355 16.0857 44.4395 13.9461 41.391 13.9461C38.3469 13.9461 36.2465 16.0857 36.2465 19.2951C36.2465 22.5044 38.3469 24.644 41.391 24.644C44.4395 24.644 46.5355 22.5044 46.5355 19.2951Z" fill="#FFFFFF"/>
<path d="M74.3542 17.0732V28.8016H69.2923V18.2691C69.2923 15.1815 67.8529 13.8682 65.3828 13.8682C62.791 13.8682 60.9385 15.3902 60.9385 19.5041V28.8016H55.92V9.79342H60.8993V12.6723H60.9819C62.2561 10.4936 64.3957 9.1759 67.1919 9.1759C71.3058 9.1759 74.3542 11.4807 74.3542 17.0732Z" fill="#FFFFFF"/>
<path d="M85.4652 14.0289V22.0132C85.4652 23.5352 86.0001 24.1527 87.4787 24.1527H88.3441V28.845H86.1219C82.5429 28.845 80.4033 27.0359 80.4033 23.2091V14.0333H76.907V9.79765H80.4033V2.17871H85.4652V9.7933H89.3747V14.0289H85.4652Z" fill="#FFFFFF"/>
<path d="M103.895 14.6463H103.321C99.2898 14.6463 97.3546 16.3727 97.3546 21.0215V28.797H92.3362V9.7931H97.3155V13.8244H97.3981C98.3852 10.8629 100.564 9.21472 103.691 9.21472H103.895V14.6463Z" fill="#FFFFFF"/>
<path d="M106.613 9.79333H111.675V28.8015H106.613V9.79333Z" fill="#FFFFFF"/>
<path d="M123.112 14.0289V22.0132C123.112 23.5352 123.647 24.1527 125.125 24.1527H125.991V28.845H123.769C120.19 28.845 118.05 27.0359 118.05 23.2091V14.0333H114.554V9.79765H118.05V2.17871H123.112V9.7933H127.021V14.0289H123.112Z" fill="#FFFFFF"/>
<path d="M147.926 19.3388V20.326H133.731C134.018 23.2483 136.158 24.9356 139.08 24.9356C141.798 24.9356 143.69 23.4136 144.76 22.3438L147.308 26.0054C145.621 27.5709 143.068 29.4191 139.08 29.4191C132.87 29.4191 128.835 25.3879 128.835 19.3388C128.835 13.2898 132.744 9.1759 138.711 9.1759C144.468 9.1759 147.926 12.8375 147.926 19.3388ZM133.853 17.0732H142.825C142.659 14.6466 140.933 13.2463 138.463 13.2463C136.032 13.2506 134.266 14.4422 133.853 17.0732Z" fill="#FFFFFF"/>
<path d="M109.601 5.80135H106.282V2.69202C106.282 1.34392 107.378 0.248047 108.726 0.248047H112.045V3.35737C112.045 4.70982 110.953 5.80135 109.601 5.80135Z" fill="#FFFFFF"/>
  </g>
</svg>
