<svg width="32" height="32" viewBox="0 0 32 32" fill="none" xmlns="http://www.w3.org/2000/svg">
<path d="M19.4383 31.4937C18.3307 31.7352 17.1801 31.8625 15.9997 31.8625C12.7597 31.8625 9.74464 30.9036 7.22516 29.2553C6.59973 28.3645 6.31912 27.8742 6.11443 27.5165C6.01301 27.3392 5.93022 27.1946 5.83337 27.0499C4.87895 25.5216 4.37959 23.5585 4.2707 21.2519C3.93339 14.1049 8.29559 9.54101 12.7519 8.79191C15.5767 8.31706 17.8216 8.79795 19.5434 9.71478C18.0212 9.29317 16.2066 9.26781 14.1379 9.85748C9.12295 11.4669 7.4512 16.3609 8.16773 21.7804C9.41823 28.5712 16.1053 31.0052 19.4383 31.4937Z" fill="url(#paint0_linear_4575_73)"/>
<path d="M19.4383 31.4937C18.3307 31.7352 17.1801 31.8625 15.9997 31.8625C12.7597 31.8625 9.74464 30.9036 7.22516 29.2553C6.59973 28.3645 6.31912 27.8742 6.11443 27.5165C6.01301 27.3392 5.93022 27.1946 5.83337 27.0499C4.87895 25.5216 4.37959 23.5585 4.2707 21.2519C3.93339 14.1049 8.29559 9.54101 12.7519 8.79191C15.5767 8.31706 17.8216 8.79795 19.5434 9.71478C18.0212 9.29317 16.2066 9.26781 14.1379 9.85748C9.12295 11.4669 7.4512 16.3609 8.16773 21.7804C9.41823 28.5712 16.1053 31.0052 19.4383 31.4937Z" fill="white"/>
<path d="M5.15483 27.6447C4.22203 25.9955 3.3773 23.5346 3.27174 21.2987C2.91365 13.7114 7.57035 8.65321 12.5854 7.81019C19.4214 6.66105 23.2219 10.6907 24.532 13.6815C24.5868 13.6447 24.6091 13.5719 24.5802 13.5092C22.426 8.84522 17.9706 5.6424 12.8241 5.6424C6.98024 5.6424 1.76587 9.8164 0 16.0197C0.0250791 20.6164 2.00532 24.7523 5.15483 27.6447Z" fill="url(#paint1_linear_4575_73)"/>
<path d="M5.15483 27.6447C4.22203 25.9955 3.3773 23.5346 3.27174 21.2987C2.91365 13.7114 7.57035 8.65321 12.5854 7.81019C19.4214 6.66105 23.2219 10.6907 24.532 13.6815C24.5868 13.6447 24.6091 13.5719 24.5802 13.5092C22.426 8.84522 17.9706 5.6424 12.8241 5.6424C6.98024 5.6424 1.76587 9.8164 0 16.0197C0.0250791 20.6164 2.00532 24.7523 5.15483 27.6447Z" fill="white"/>
<path d="M24.9996 29.105C23.8455 29.8883 22.5831 30.525 21.2395 30.9885C20.5944 30.8767 19.8796 30.7374 19.3763 30.6393C19.1378 30.5928 18.9468 30.5556 18.8333 30.5349C15.7897 29.9813 10.3479 28.0286 9.15575 21.6254C8.81891 19.0507 9.06015 16.6806 9.91445 14.8007C10.7561 12.9485 12.2086 11.5287 14.4237 10.8119C16.9983 10.1135 19.1318 10.4596 20.7166 11.3071C20.3265 11.2252 19.9232 11.1823 19.5106 11.1823C16.0815 11.1823 13.3017 14.1478 13.3017 17.8061C13.3017 19.2668 13.7449 20.6171 14.4957 21.7123C14.4957 21.7123 16.645 25.7547 22.4957 25.3934C27.7125 25.0712 30.4216 20.4119 30.7445 18.6909C30.9123 17.7965 31 16.8741 31 15.9313C31 7.68258 24.2843 0.995703 16.0001 0.995703C9.73137 0.995703 4.36082 4.82459 2.11859 10.2617C1.36123 11.2441 0.709088 12.3333 0.183594 13.5109C1.35459 5.86098 7.98993 0 16.0001 0C24.8366 0 32 7.13267 32 15.9313C32 21.4072 29.2253 26.2375 24.9996 29.105Z" fill="url(#paint2_linear_4575_73)"/>
<path d="M24.9996 29.105C23.8455 29.8883 22.5831 30.525 21.2395 30.9885C20.5944 30.8767 19.8796 30.7374 19.3763 30.6393C19.1378 30.5928 18.9468 30.5556 18.8333 30.5349C15.7897 29.9813 10.3479 28.0286 9.15575 21.6254C8.81891 19.0507 9.06015 16.6806 9.91445 14.8007C10.7561 12.9485 12.2086 11.5287 14.4237 10.8119C16.9983 10.1135 19.1318 10.4596 20.7166 11.3071C20.3265 11.2252 19.9232 11.1823 19.5106 11.1823C16.0815 11.1823 13.3017 14.1478 13.3017 17.8061C13.3017 19.2668 13.7449 20.6171 14.4957 21.7123C14.4957 21.7123 16.645 25.7547 22.4957 25.3934C27.7125 25.0712 30.4216 20.4119 30.7445 18.6909C30.9123 17.7965 31 16.8741 31 15.9313C31 7.68258 24.2843 0.995703 16.0001 0.995703C9.73137 0.995703 4.36082 4.82459 2.11859 10.2617C1.36123 11.2441 0.709088 12.3333 0.183594 13.5109C1.35459 5.86098 7.98993 0 16.0001 0C24.8366 0 32 7.13267 32 15.9313C32 21.4072 29.2253 26.2375 24.9996 29.105Z" fill="white"/>
<defs>
<linearGradient id="paint0_linear_4575_73" x1="9.11066" y1="8.71963" x2="7.61055" y2="24.104" gradientUnits="userSpaceOnUse">
<stop stop-color="#FA9A43"/>
<stop offset="1" stop-color="#F14949"/>
</linearGradient>
<linearGradient id="paint1_linear_4575_73" x1="7.81374" y1="6.47436" x2="7.02823" y2="20.6378" gradientUnits="userSpaceOnUse">
<stop stop-color="#FA9A43"/>
<stop offset="1" stop-color="#F14949"/>
</linearGradient>
<linearGradient id="paint2_linear_4575_73" x1="10.2924" y1="1.17176" x2="9.08868" y2="21.1085" gradientUnits="userSpaceOnUse">
<stop stop-color="#FA9A43"/>
<stop offset="1" stop-color="#F14949"/>
</linearGradient>
</defs>
</svg>
