<svg xmlns="http://www.w3.org/2000/svg" width="1200" height="800" viewBox="0 0 1200 800">
  <defs>
    <linearGradient id="bg" x1="0" y1="0" x2="1" y2="1">
      <stop offset="0" stop-color="#1a1a1a"/>
      <stop offset="1" stop-color="#11100f"/>
    </linearGradient>
  </defs>
  <rect width="1200" height="800" fill="url(#bg)"/>
  <rect x="70" y="70" width="1060" height="660" rx="12" fill="#141312" stroke="rgba(255,255,255,0.08)"/>

  <text x="120" y="150" fill="#f0f0f0" font-family="Figtree, sans-serif" font-size="28" font-weight="600">Kanban + Agent Summary</text>
  <text x="120" y="190" fill="rgba(240,240,240,0.6)" font-family="Inter, sans-serif" font-size="16">Working tool + connected agent</text>

  <rect x="120" y="250" width="680" height="420" rx="10" fill="#1f1e1c" stroke="rgba(255,255,255,0.08)"/>
  <text x="150" y="290" fill="#2ea782" font-family="Silkscreen, monospace" font-size="12" letter-spacing="1">TO DO</text>
  <text x="350" y="290" fill="#2ea782" font-family="Silkscreen, monospace" font-size="12" letter-spacing="1">IN PROGRESS</text>
  <text x="600" y="290" fill="#2ea782" font-family="Silkscreen, monospace" font-size="12" letter-spacing="1">DONE</text>

  <rect x="140" y="320" width="180" height="70" rx="8" fill="#2a2926"/>
  <rect x="140" y="400" width="180" height="70" rx="8" fill="#2a2926"/>
  <rect x="360" y="320" width="200" height="70" rx="8" fill="#2a2926"/>
  <rect x="360" y="400" width="200" height="70" rx="8" fill="#2a2926"/>
  <rect x="590" y="320" width="180" height="70" rx="8" fill="#2a2926"/>

  <rect x="840" y="250" width="250" height="420" rx="10" fill="#1f1e1c" stroke="rgba(255,255,255,0.08)"/>
  <text x="865" y="290" fill="#2ea782" font-family="Silkscreen, monospace" font-size="12" letter-spacing="1">AGENT SUMMARY</text>
  <rect x="865" y="320" width="200" height="12" rx="6" fill="rgba(255,255,255,0.2)"/>
  <rect x="865" y="350" width="180" height="12" rx="6" fill="rgba(255,255,255,0.2)"/>
  <rect x="865" y="380" width="210" height="12" rx="6" fill="rgba(255,255,255,0.2)"/>
</svg>
