<svg xmlns="http://www.w3.org/2000/svg" width="1200" height="800" viewBox="0 0 1200 800">
  <defs>
    <linearGradient id="bg" x1="0" y1="0" x2="1" y2="1">
      <stop offset="0" stop-color="#1a1a1a"/>
      <stop offset="1" stop-color="#11100f"/>
    </linearGradient>
  </defs>
  <rect width="1200" height="800" fill="url(#bg)"/>
  <rect x="70" y="70" width="1060" height="660" rx="12" fill="#141312" stroke="rgba(255,255,255,0.08)"/>

  <text x="120" y="150" fill="#f0f0f0" font-family="Figtree, sans-serif" font-size="28" font-weight="600">Before / After</text>
  <text x="120" y="190" fill="rgba(240,240,240,0.6)" font-family="Inter, sans-serif" font-size="16">From ideas to a working tool</text>

  <rect x="120" y="250" width="460" height="420" rx="10" fill="#1f1e1c" stroke="rgba(255,255,255,0.08)"/>
  <text x="160" y="300" fill="rgba(255,255,255,0.5)" font-family="Silkscreen, monospace" font-size="12" letter-spacing="1">BEFORE</text>
  <rect x="160" y="330" width="320" height="12" rx="6" fill="rgba(255,255,255,0.2)"/>
  <rect x="160" y="360" width="280" height="12" rx="6" fill="rgba(255,255,255,0.2)"/>
  <rect x="160" y="390" width="300" height="12" rx="6" fill="rgba(255,255,255,0.2)"/>

  <rect x="620" y="250" width="460" height="420" rx="10" fill="#1f1e1c" stroke="rgba(46,167,130,0.6)"/>
  <text x="660" y="300" fill="#2ea782" font-family="Silkscreen, monospace" font-size="12" letter-spacing="1">AFTER</text>
  <rect x="660" y="330" width="320" height="12" rx="6" fill="rgba(46,167,130,0.6)"/>
  <rect x="660" y="360" width="280" height="12" rx="6" fill="rgba(46,167,130,0.6)"/>
  <rect x="660" y="390" width="300" height="12" rx="6" fill="rgba(46,167,130,0.6)"/>
</svg>
